<svg xmlns="http://www.w3.org/2000/svg" xmlns:xlink="http://www.w3.org/1999/xlink" aria-hidden="true" role="img" class="iconify iconify--logos" width="35.93" height="32" preserveAspectRatio="xMidYMid meet" viewBox="0 0 256 228"><path fill="#00D9FF" d="M210.483 131.974c0-12.259-9.952-22.212-22.212-22.212s-22.212 9.953-22.212 22.212s9.952 22.212 22.212 22.212s22.212-9.953 22.212-22.212"></path><path fill="#00D9FF" d="M105.407 131.974c0-12.259-9.952-22.212-22.212-22.212S61.983 119.715 61.983 131.974s9.952 22.212 22.212 22.212s22.212-9.953 22.212-22.212"></path><path fill="#00B8E6" d="M174.328 61.983c0 12.259 9.952 22.212 22.212 22.212s22.212-9.953 22.212-22.212s-9.952-22.212-22.212-22.212s-22.212 9.953-22.212 22.212"></path><path fill="#00D9FF" d="M81.672 61.983c0 12.259 9.952 22.212 22.212 22.212s22.212-9.953 22.212-22.212s-9.952-22.212-22.212-22.212S81.672 49.724 81.672 61.983"></path><path fill="#00B8E6" d="M128 0C57.308 0 0 57.308 0 128s57.308 128 128 128s128-57.308 128-128S198.692 0 128 0zm0 233.755c-58.341 0-105.755-47.414-105.755-105.755S69.659 22.245 128 22.245S233.755 69.659 233.755 128S186.341 233.755 128 233.755z"></path></svg>
